<svg xmlns="http://www.w3.org/2000/svg" viewBox="0 0 512 512">
  <defs>
    <linearGradient id="gradient1" x1="0%" y1="0%" x2="100%" y2="100%">
      <stop offset="0%" style="stop-color:#1e3c72;stop-opacity:1" />
      <stop offset="100%" style="stop-color:#2a5298;stop-opacity:1" />
    </linearGradient>
    <linearGradient id="gradient2" x1="0%" y1="0%" x2="100%" y2="100%">
      <stop offset="0%" style="stop-color:#00c9ff;stop-opacity:1" />
      <stop offset="100%" style="stop-color:#92fe9d;stop-opacity:1" />
    </linearGradient>
  </defs>
  <circle cx="256" cy="256" r="256" fill="url(#gradient1)" />
  <g transform="translate(96, 96) scale(0.625)">
    <!-- House Shape -->
    <path d="M256,80 L50,230 L50,430 L462,430 L462,230 Z" fill="white" opacity="0.85" />
    <path d="M256,80 L50,230 L50,250 L256,100 L462,250 L462,230 Z" fill="white" opacity="0.6" />
    
    <!-- Chimney -->
    <rect x="350" y="120" width="30" height="60" fill="white" opacity="0.85" />
    
    <!-- Door -->
    <rect x="220" y="330" width="72" height="100" rx="10" fill="url(#gradient1)" />
    <circle cx="275" cy="380" r="6" fill="white" />
    
    <!-- Windows -->
    <rect x="120" y="260" width="60" height="60" rx="4" fill="url(#gradient1)" />
    <rect x="332" y="260" width="60" height="60" rx="4" fill="url(#gradient1)" />
    
    <!-- Window panes -->
    <line x1="150" y1="260" x2="150" y2="320" stroke="white" stroke-width="3" />
    <line x1="120" y1="290" x2="180" y2="290" stroke="white" stroke-width="3" />
    <line x1="362" y1="260" x2="362" y2="320" stroke="white" stroke-width="3" />
    <line x1="332" y1="290" x2="392" y2="290" stroke="white" stroke-width="3" />
    
    <!-- Euro sign -->
    <g transform="translate(256, 256) scale(1.2)">
      <path d="M-20,-30 C-45,-30 -60,-10 -60,10 C-60,30 -45,50 -20,50 C-10,50 0,45 5,40 L0,25 C-5,30 -10,35 -20,35 C-35,35 -40,25 -40,10 C-40,-5 -35,-15 -20,-15 C-10,-15 -5,-10 0,-5 L5,-20 C0,-25 -10,-30 -20,-30 Z" fill="url(#gradient2)" />
      <line x1="-55" y1="0" x2="-15" y2="0" stroke="url(#gradient2)" stroke-width="6" stroke-linecap="round" />
      <line x1="-45" y1="20" x2="-15" y2="20" stroke="url(#gradient2)" stroke-width="6" stroke-linecap="round" />
    </g>
  </g>
</svg>